ply
format ascii 1.0
comment VTK generated PLY File
obj_info vtkPolyData points and polygons: vtk4.0
element vertex 842
property float x
property float y
property float z
element face 1680
property list uchar int vertex_indices
end_header
0 0 120 
0 0 -120 
12.9743 0 119.297 
25.7965 0 117.194 
38.3162 0 113.718 
50.3867 0 108.909 
61.8665 0 102.823 
72.6209 0 95.5312 
82.5239 0 87.1195 
91.4594 0 77.6864 
99.3227 0 67.3424 
106.021 0 56.209 
111.477 0 44.4166 
115.626 0 32.1034 
118.419 0 19.4138 
119.824 0 6.49667 
119.824 0 -6.49667 
118.419 0 -19.4138 
115.626 0 -32.1034 
111.477 0 -44.4166 
106.021 0 -56.209 
99.3227 0 -67.3424 
91.4594 0 -77.6864 
82.5239 0 -87.1195 
72.6209 0 -95.5312 
61.8665 0 -102.823 
50.3867 0 -108.909 
38.3162 0 -113.718 
25.7965 0 -117.194 
12.9743 0 -119.297 
12.6908 2.6975 119.297 
25.2327 5.36338 117.194 
37.4789 7.96638 113.718 
49.2856 10.476 108.909 
60.5145 12.8628 102.823 
71.034 15.0987 95.5312 
80.7206 17.1577 87.1195 
89.4608 19.0155 77.6864 
97.1522 20.6503 67.3424 
103.705 22.0431 56.209 
109.041 23.1774 44.4166 
113.099 24.04 32.1034 
115.831 24.6207 19.4138 
117.206 24.9128 6.49667 
117.206 24.9128 -6.49667 
115.831 24.6207 -19.4138 
113.099 24.04 -32.1034 
109.041 23.1774 -44.4166 
103.705 22.0431 -56.209 
97.1522 20.6503 -67.3424 
89.4608 19.0155 -77.6864 
80.7206 17.1577 -87.1195 
71.034 15.0987 -95.5312 
60.5145 12.8628 -102.823 
49.2856 10.476 -108.909 
37.4789 7.96638 -113.718 
25.2327 5.36338 -117.194 
12.6908 2.6975 -119.297 
11.8526 5.27712 119.297 
23.5662 10.4924 117.194 
35.0036 15.5846 113.718 
46.0305 20.4941 108.909 
56.5178 25.1634 102.823 
66.3425 29.5376 95.5312 
75.3894 33.5655 87.1195 
83.5524 37.1999 77.6864 
90.7358 40.3982 67.3424 
96.8554 43.1228 56.209 
101.839 45.3419 44.4166 
105.63 47.0293 32.1034 
108.181 48.1654 19.4138 
109.465 48.7368 6.49667 
109.465 48.7368 -6.49667 
108.181 48.1654 -19.4138 
105.63 47.0293 -32.1034 
101.839 45.3419 -44.4166 
96.8554 43.1228 -56.209 
90.7358 40.3982 -67.3424 
83.5524 37.1999 -77.6864 
75.3894 33.5655 -87.1195 
66.3425 29.5376 -95.5312 
56.5178 25.1634 -102.823 
46.0305 20.4941 -108.909 
35.0036 15.5846 -113.718 
23.5662 10.4924 -117.194 
11.8526 5.27712 -119.297 
10.4964 7.62609 119.297 
20.8698 15.1628 117.194 
30.9984 22.5217 113.718 
40.7637 29.6166 108.909 
50.051 36.3642 102.823 
58.7515 42.6855 95.5312 
66.7633 48.5064 87.1195 
73.9922 53.7585 77.6864 
80.3537 58.3804 67.3424 
85.7731 62.3178 56.209 
90.187 65.5247 44.4166 
93.5434 67.9633 32.1034 
95.8031 69.605 19.4138 
96.9397 70.4308 6.49667 
96.9397 70.4308 -6.49667 
95.8031 69.605 -19.4138 
93.5434 67.9633 -32.1034 
90.187 65.5247 -44.4166 
85.7731 62.3178 -56.209 
80.3537 58.3804 -67.3424 
73.9922 53.7585 -77.6864 
66.7633 48.5064 -87.1195 
58.7515 42.6855 -95.5312 
50.051 36.3642 -102.823 
40.7637 29.6166 -108.909 
30.9984 22.5217 -113.718 
20.8698 15.1628 -117.194 
10.4964 7.62609 -119.297 
8.68149 9.64177 119.297 
17.2612 19.1705 117.194 
25.6385 28.4745 113.718 
33.7153 37.4446 108.909 
41.3967 45.9757 102.823 
48.5929 53.9678 95.5312 
55.2193 61.3272 87.1195 
61.1983 67.9676 77.6864 
66.4598 73.8111 67.3424 
70.9422 78.7893 56.209 
74.5928 82.8437 44.4166 
77.3689 85.9269 32.1034 
79.2379 88.0026 19.4138 
80.1779 89.0466 6.49667 
80.1779 89.0466 -6.49667 
79.2379 88.0026 -19.4138 
77.3689 85.9269 -32.1034 
74.5928 82.8437 -44.4166 
70.9422 78.7893 -56.209 
66.4598 73.8111 -67.3424 
61.1983 67.9676 -77.6864 
55.2193 61.3272 -87.1195 
48.5929 53.9678 -95.5312 
41.3967 45.9757 -102.823 
33.7153 37.4446 -108.909 
25.6385 28.4745 -113.718 
17.2612 19.1705 -117.194 
8.68149 9.64177 -119.297 
6.48714 11.2361 119.297 
12.8982 22.3404 117.194 
19.1581 33.1828 113.718 
25.1933 43.6362 108.909 
30.9332 53.5779 102.823 
36.3105 62.8915 95.5312 
41.262 71.4678 87.1195 
45.7297 79.2062 77.6864 
49.6613 86.016 67.3424 
53.0107 91.8173 56.209 
55.7386 96.5421 44.4166 
57.813 100.135 32.1034 
59.2096 102.554 19.4138 
59.912 103.771 6.49667 
59.912 103.771 -6.49667 
59.2096 102.554 -19.4138 
57.813 100.135 -32.1034 
55.7386 96.5421 -44.4166 
53.0107 91.8173 -56.209 
49.6613 86.016 -67.3424 
45.7297 79.2062 -77.6864 
41.262 71.4678 -87.1195 
36.3105 62.8915 -95.5312 
30.9332 53.5779 -102.823 
25.1933 43.6362 -108.909 
19.1581 33.1828 -113.718 
12.8982 22.3404 -117.194 
6.48714 11.2361 -119.297 
4.00927 12.3393 119.297 
7.97154 24.5339 117.194 
11.8404 36.4409 113.718 
15.5703 47.9206 108.909 
19.1178 58.8385 102.823 
22.4411 69.0666 95.5312 
25.5013 78.4849 87.1195 
28.2625 86.9831 77.6864 
30.6924 94.4615 67.3424 
32.7624 100.832 56.209 
34.4484 106.021 44.4166 
35.7304 109.967 32.1034 
36.5935 112.623 19.4138 
37.0277 113.959 6.49667 
37.0277 113.959 -6.49667 
36.5935 112.623 -19.4138 
35.7304 109.967 -32.1034 
34.4484 106.021 -44.4166 
32.7624 100.832 -56.209 
30.6924 94.4615 -67.3424 
28.2625 86.9831 -77.6864 
25.5013 78.4849 -87.1195 
22.4411 69.0666 -95.5312 
19.1178 58.8385 -102.823 
15.5703 47.9206 -108.909 
11.8404 36.4409 -113.718 
7.97154 24.5339 -117.194 
4.00927 12.3393 -119.297 
1.35618 12.9032 119.297 
2.69646 25.6551 117.194 
4.00513 38.1063 113.718 
5.26684 50.1107 108.909 
6.46681 61.5276 102.823 
7.59095 72.2231 95.5312 
8.6261 82.0719 87.1195 
9.56012 90.9584 77.6864 
10.382 98.7786 67.3424 
11.0823 105.441 56.209 
11.6525 110.867 44.4166 
12.0862 114.993 32.1034 
12.3782 117.77 19.4138 
12.525 119.168 6.49667 
12.525 119.168 -6.49667 
12.3782 117.77 -19.4138 
12.0862 114.993 -32.1034 
11.6525 110.867 -44.4166 
11.0823 105.441 -56.209 
10.382 98.7786 -67.3424 
9.56012 90.9584 -77.6864 
8.6261 82.0719 -87.1195 
7.59095 72.2231 -95.5312 
6.46681 61.5276 -102.823 
5.26684 50.1107 -108.909 
4.00513 38.1063 -113.718 
2.69646 25.6551 -117.194 
1.35618 12.9032 -119.297 
-1.35618 12.9032 119.297 
-2.69646 25.6551 117.194 
-4.00513 38.1063 113.718 
-5.26684 50.1107 108.909 
-6.46681 61.5276 102.823 
-7.59095 72.2231 95.5312 
-8.6261 82.0719 87.1195 
-9.56012 90.9584 77.6864 
-10.382 98.7786 67.3424 
-11.0823 105.441 56.209 
-11.6525 110.867 44.4166 
-12.0862 114.993 32.1034 
-12.3782 117.77 19.4138 
-12.525 119.168 6.49667 
-12.525 119.168 -6.49667 
-12.3782 117.77 -19.4138 
-12.0862 114.993 -32.1034 
-11.6525 110.867 -44.4166 
-11.0823 105.441 -56.209 
-10.382 98.7786 -67.3424 
-9.56012 90.9584 -77.6864 
-8.6261 82.0719 -87.1195 
-7.59095 72.2231 -95.5312 
-6.46681 61.5276 -102.823 
-5.26684 50.1107 -108.909 
-4.00513 38.1063 -113.718 
-2.69646 25.6551 -117.194 
-1.35618 12.9032 -119.297 
-4.00927 12.3393 119.297 
-7.97154 24.5339 117.194 
-11.8404 36.4409 113.718 
-15.5703 47.9206 108.909 
-19.1178 58.8385 102.823 
-22.4411 69.0666 95.5312 
-25.5013 78.4849 87.1195 
-28.2625 86.9831 77.6864 
-30.6924 94.4615 67.3424 
-32.7624 100.832 56.209 
-34.4484 106.021 44.4166 
-35.7304 109.967 32.1034 
-36.5935 112.623 19.4138 
-37.0277 113.959 6.49667 
-37.0277 113.959 -6.49667 
-36.5935 112.623 -19.4138 
-35.7304 109.967 -32.1034 
-34.4484 106.021 -44.4166 
-32.7624 100.832 -56.209 
-30.6924 94.4615 -67.3424 
-28.2625 86.9831 -77.6864 
-25.5013 78.4849 -87.1195 
-22.4411 69.0666 -95.5312 
-19.1178 58.8385 -102.823 
-15.5703 47.9206 -108.909 
-11.8404 36.4409 -113.718 
-7.97154 24.5339 -117.194 
-4.00927 12.3393 -119.297 
-6.48714 11.2361 119.297 
-12.8982 22.3404 117.194 
-19.1581 33.1828 113.718 
-25.1933 43.6362 108.909 
-30.9332 53.5779 102.823 
-36.3105 62.8915 95.5312 
-41.262 71.4678 87.1195 
-45.7297 79.2062 77.6864 
-49.6613 86.016 67.3424 
-53.0107 91.8173 56.209 
-55.7386 96.5421 44.4166 
-57.813 100.135 32.1034 
-59.2096 102.554 19.4138 
-59.912 103.771 6.49667 
-59.912 103.771 -6.49667 
-59.2096 102.554 -19.4138 
-57.813 100.135 -32.1034 
-55.7386 96.5421 -44.4166 
-53.0107 91.8173 -56.209 
-49.6613 86.016 -67.3424 
-45.7297 79.2062 -77.6864 
-41.262 71.4678 -87.1195 
-36.3105 62.8915 -95.5312 
-30.9332 53.5779 -102.823 
-25.1933 43.6362 -108.909 
-19.1581 33.1828 -113.718 
-12.8982 22.3404 -117.194 
-6.48714 11.2361 -119.297 
-8.68149 9.64177 119.297 
-17.2612 19.1705 117.194 
-25.6385 28.4745 113.718 
-33.7153 37.4446 108.909 
-41.3967 45.9757 102.823 
-48.5929 53.9678 95.5312 
-55.2193 61.3272 87.1195 
-61.1983 67.9676 77.6864 
-66.4598 73.8111 67.3424 
-70.9422 78.7893 56.209 
-74.5928 82.8437 44.4166 
-77.3689 85.9269 32.1034 
-79.2379 88.0026 19.4138 
-80.1779 89.0466 6.49667 
-80.1779 89.0466 -6.49667 
-79.2379 88.0026 -19.4138 
-77.3689 85.9269 -32.1034 
-74.5928 82.8437 -44.4166 
-70.9422 78.7893 -56.209 
-66.4598 73.8111 -67.3424 
-61.1983 67.9676 -77.6864 
-55.2193 61.3272 -87.1195 
-48.5929 53.9678 -95.5312 
-41.3967 45.9757 -102.823 
-33.7153 37.4446 -108.909 
-25.6385 28.4745 -113.718 
-17.2612 19.1705 -117.194 
-8.68149 9.64177 -119.297 
-10.4964 7.62609 119.297 
-20.8698 15.1628 117.194 
-30.9984 22.5217 113.718 
-40.7637 29.6166 108.909 
-50.051 36.3642 102.823 
-58.7515 42.6855 95.5312 
-66.7633 48.5064 87.1195 
-73.9922 53.7585 77.6864 
-80.3537 58.3804 67.3424 
-85.7731 62.3178 56.209 
-90.187 65.5247 44.4166 
-93.5434 67.9633 32.1034 
-95.8031 69.605 19.4138 
-96.9397 70.4308 6.49667 
-96.9397 70.4308 -6.49667 
-95.8031 69.605 -19.4138 
-93.5434 67.9633 -32.1034 
-90.187 65.5247 -44.4166 
-85.7731 62.3178 -56.209 
-80.3537 58.3804 -67.3424 
-73.9922 53.7585 -77.6864 
-66.7633 48.5064 -87.1195 
-58.7515 42.6855 -95.5312 
-50.051 36.3642 -102.823 
-40.7637 29.6166 -108.909 
-30.9984 22.5217 -113.718 
-20.8698 15.1628 -117.194 
-10.4964 7.62609 -119.297 
-11.8526 5.27712 119.297 
-23.5662 10.4924 117.194 
-35.0036 15.5846 113.718 
-46.0305 20.4941 108.909 
-56.5178 25.1634 102.823 
-66.3425 29.5376 95.5312 
-75.3894 33.5655 87.1195 
-83.5524 37.1999 77.6864 
-90.7358 40.3982 67.3424 
-96.8554 43.1228 56.209 
-101.839 45.3419 44.4166 
-105.63 47.0293 32.1034 
-108.181 48.1654 19.4138 
-109.465 48.7368 6.49667 
-109.465 48.7368 -6.49667 
-108.181 48.1654 -19.4138 
-105.63 47.0293 -32.1034 
-101.839 45.3419 -44.4166 
-96.8554 43.1228 -56.209 
-90.7358 40.3982 -67.3424 
-83.5524 37.1999 -77.6864 
-75.3894 33.5655 -87.1195 
-66.3425 29.5376 -95.5312 
-56.5178 25.1634 -102.823 
-46.0305 20.4941 -108.909 
-35.0036 15.5846 -113.718 
-23.5662 10.4924 -117.194 
-11.8526 5.27712 -119.297 
-12.6908 2.6975 119.297 
-25.2327 5.36338 117.194 
-37.4789 7.96638 113.718 
-49.2856 10.476 108.909 
-60.5145 12.8628 102.823 
-71.034 15.0987 95.5312 
-80.7206 17.1577 87.1195 
-89.4608 19.0155 77.6864 
-97.1522 20.6503 67.3424 
-103.705 22.0431 56.209 
-109.041 23.1774 44.4166 
-113.099 24.04 32.1034 
-115.831 24.6207 19.4138 
-117.206 24.9128 6.49667 
-117.206 24.9128 -6.49667 
-115.831 24.6207 -19.4138 
-113.099 24.04 -32.1034 
-109.041 23.1774 -44.4166 
-103.705 22.0431 -56.209 
-97.1522 20.6503 -67.3424 
-89.4608 19.0155 -77.6864 
-80.7206 17.1577 -87.1195 
-71.034 15.0987 -95.5312 
-60.5145 12.8628 -102.823 
-49.2856 10.476 -108.909 
-37.4789 7.96638 -113.718 
-25.2327 5.36338 -117.194 
-12.6908 2.6975 -119.297 
-12.9743 1.58889e-15 119.297 
-25.7965 3.15915e-15 117.194 
-38.3162 4.69238e-15 113.718 
-50.3867 6.17059e-15 108.909 
-61.8665 7.57646e-15 102.823 
-72.6209 8.8935e-15 95.5312 
-82.5239 1.01063e-14 87.1195 
-91.4594 1.12006e-14 77.6864 
-99.3227 1.21635e-14 67.3424 
-106.021 1.29839e-14 56.209 
-111.477 1.3652e-14 44.4166 
-115.626 1.41601e-14 32.1034 
-118.419 1.45022e-14 19.4138 
-119.824 1.46742e-14 6.49667 
-119.824 1.46742e-14 -6.49667 
-118.419 1.45022e-14 -19.4138 
-115.626 1.41601e-14 -32.1034 
-111.477 1.3652e-14 -44.4166 
-106.021 1.29839e-14 -56.209 
-99.3227 1.21635e-14 -67.3424 
-91.4594 1.12006e-14 -77.6864 
-82.5239 1.01063e-14 -87.1195 
-72.6209 8.8935e-15 -95.5312 
-61.8665 7.57646e-15 -102.823 
-50.3867 6.17059e-15 -108.909 
-38.3162 4.69238e-15 -113.718 
-25.7965 3.15915e-15 -117.194 
-12.9743 1.58889e-15 -119.297 
-12.6908 -2.6975 119.297 
-25.2327 -5.36338 117.194 
-37.4789 -7.96638 113.718 
-49.2856 -10.476 108.909 
-60.5145 -12.8628 102.823 
-71.034 -15.0987 95.5312 
-80.7206 -17.1577 87.1195 
-89.4608 -19.0155 77.6864 
-97.1522 -20.6503 67.3424 
-103.705 -22.0431 56.209 
-109.041 -23.1774 44.4166 
-113.099 -24.04 32.1034 
-115.831 -24.6207 19.4138 
-117.206 -24.9128 6.49667 
-117.206 -24.9128 -6.49667 
-115.831 -24.6207 -19.4138 
-113.099 -24.04 -32.1034 
-109.041 -23.1774 -44.4166 
-103.705 -22.0431 -56.209 
-97.1522 -20.6503 -67.3424 
-89.4608 -19.0155 -77.6864 
-80.7206 -17.1577 -87.1195 
-71.034 -15.0987 -95.5312 
-60.5145 -12.8628 -102.823 
-49.2856 -10.476 -108.909 
-37.4789 -7.96638 -113.718 
-25.2327 -5.36338 -117.194 
-12.6908 -2.6975 -119.297 
-11.8526 -5.27712 119.297 
-23.5662 -10.4924 117.194 
-35.0036 -15.5846 113.718 
-46.0305 -20.4941 108.909 
-56.5178 -25.1634 102.823 
-66.3425 -29.5376 95.5312 
-75.3894 -33.5655 87.1195 
-83.5524 -37.1999 77.6864 
-90.7358 -40.3982 67.3424 
-96.8554 -43.1228 56.209 
-101.839 -45.3419 44.4166 
-105.63 -47.0293 32.1034 
-108.181 -48.1654 19.4138 
-109.465 -48.7368 6.49667 
-109.465 -48.7368 -6.49667 
-108.181 -48.1654 -19.4138 
-105.63 -47.0293 -32.1034 
-101.839 -45.3419 -44.4166 
-96.8554 -43.1228 -56.209 
-90.7358 -40.3982 -67.3424 
-83.5524 -37.1999 -77.6864 
-75.3894 -33.5655 -87.1195 
-66.3425 -29.5376 -95.5312 
-56.5178 -25.1634 -102.823 
-46.0305 -20.4941 -108.909 
-35.0036 -15.5846 -113.718 
-23.5662 -10.4924 -117.194 
-11.8526 -5.27712 -119.297 
-10.4964 -7.62609 119.297 
-20.8698 -15.1628 117.194 
-30.9984 -22.5217 113.718 
-40.7637 -29.6166 108.909 
-50.051 -36.3642 102.823 
-58.7515 -42.6855 95.5312 
-66.7633 -48.5064 87.1195 
-73.9922 -53.7585 77.6864 
-80.3537 -58.3804 67.3424 
-85.7731 -62.3178 56.209 
-90.187 -65.5247 44.4166 
-93.5434 -67.9633 32.1034 
-95.8031 -69.605 19.4138 
-96.9397 -70.4308 6.49667 
-96.9397 -70.4308 -6.49667 
-95.8031 -69.605 -19.4138 
-93.5434 -67.9633 -32.1034 
-90.187 -65.5247 -44.4166 
-85.7731 -62.3178 -56.209 
-80.3537 -58.3804 -67.3424 
-73.9922 -53.7585 -77.6864 
-66.7633 -48.5064 -87.1195 
-58.7515 -42.6855 -95.5312 
-50.051 -36.3642 -102.823 
-40.7637 -29.6166 -108.909 
-30.9984 -22.5217 -113.718 
-20.8698 -15.1628 -117.194 
-10.4964 -7.62609 -119.297 
-8.68149 -9.64177 119.297 
-17.2612 -19.1705 117.194 
-25.6385 -28.4745 113.718 
-33.7153 -37.4446 108.909 
-41.3967 -45.9757 102.823 
-48.5929 -53.9678 95.5312 
-55.2193 -61.3272 87.1195 
-61.1983 -67.9676 77.6864 
-66.4598 -73.8111 67.3424 
-70.9422 -78.7893 56.209 
-74.5928 -82.8437 44.4166 
-77.3689 -85.9269 32.1034 
-79.2379 -88.0026 19.4138 
-80.1779 -89.0466 6.49667 
-80.1779 -89.0466 -6.49667 
-79.2379 -88.0026 -19.4138 
-77.3689 -85.9269 -32.1034 
-74.5928 -82.8437 -44.4166 
-70.9422 -78.7893 -56.209 
-66.4598 -73.8111 -67.3424 
-61.1983 -67.9676 -77.6864 
-55.2193 -61.3272 -87.1195 
-48.5929 -53.9678 -95.5312 
-41.3967 -45.9757 -102.823 
-33.7153 -37.4446 -108.909 
-25.6385 -28.4745 -113.718 
-17.2612 -19.1705 -117.194 
-8.68149 -9.64177 -119.297 
-6.48714 -11.2361 119.297 
-12.8982 -22.3404 117.194 
-19.1581 -33.1828 113.718 
-25.1933 -43.6362 108.909 
-30.9332 -53.5779 102.823 
-36.3105 -62.8915 95.5312 
-41.262 -71.4678 87.1195 
-45.7297 -79.2062 77.6864 
-49.6613 -86.016 67.3424 
-53.0107 -91.8173 56.209 
-55.7386 -96.5421 44.4166 
-57.813 -100.135 32.1034 
-59.2096 -102.554 19.4138 
-59.912 -103.771 6.49667 
-59.912 -103.771 -6.49667 
-59.2096 -102.554 -19.4138 
-57.813 -100.135 -32.1034 
-55.7386 -96.5421 -44.4166 
-53.0107 -91.8173 -56.209 
-49.6613 -86.016 -67.3424 
-45.7297 -79.2062 -77.6864 
-41.262 -71.4678 -87.1195 
-36.3105 -62.8915 -95.5312 
-30.9332 -53.5779 -102.823 
-25.1933 -43.6362 -108.909 
-19.1581 -33.1828 -113.718 
-12.8982 -22.3404 -117.194 
-6.48714 -11.2361 -119.297 
-4.00927 -12.3393 119.297 
-7.97154 -24.5339 117.194 
-11.8404 -36.4409 113.718 
-15.5703 -47.9206 108.909 
-19.1178 -58.8385 102.823 
-22.4411 -69.0666 95.5312 
-25.5013 -78.4849 87.1195 
-28.2625 -86.9831 77.6864 
-30.6924 -94.4615 67.3424 
-32.7624 -100.832 56.209 
-34.4484 -106.021 44.4166 
-35.7304 -109.967 32.1034 
-36.5935 -112.623 19.4138 
-37.0277 -113.959 6.49667 
-37.0277 -113.959 -6.49667 
-36.5935 -112.623 -19.4138 
-35.7304 -109.967 -32.1034 
-34.4484 -106.021 -44.4166 
-32.7624 -100.832 -56.209 
-30.6924 -94.4615 -67.3424 
-28.2625 -86.9831 -77.6864 
-25.5013 -78.4849 -87.1195 
-22.4411 -69.0666 -95.5312 
-19.1178 -58.8385 -102.823 
-15.5703 -47.9206 -108.909 
-11.8404 -36.4409 -113.718 
-7.97154 -24.5339 -117.194 
-4.00927 -12.3393 -119.297 
-1.35618 -12.9032 119.297 
-2.69646 -25.6551 117.194 
-4.00513 -38.1063 113.718 
-5.26684 -50.1107 108.909 
-6.46681 -61.5276 102.823 
-7.59095 -72.2231 95.5312 
-8.6261 -82.0719 87.1195 
-9.56012 -90.9584 77.6864 
-10.382 -98.7786 67.3424 
-11.0823 -105.441 56.209 
-11.6525 -110.867 44.4166 
-12.0862 -114.993 32.1034 
-12.3782 -117.77 19.4138 
-12.525 -119.168 6.49667 
-12.525 -119.168 -6.49667 
-12.3782 -117.77 -19.4138 
-12.0862 -114.993 -32.1034 
-11.6525 -110.867 -44.4166 
-11.0823 -105.441 -56.209 
-10.382 -98.7786 -67.3424 
-9.56012 -90.9584 -77.6864 
-8.6261 -82.0719 -87.1195 
-7.59095 -72.2231 -95.5312 
-6.46681 -61.5276 -102.823 
-5.26684 -50.1107 -108.909 
-4.00513 -38.1063 -113.718 
-2.69646 -25.6551 -117.194 
-1.35618 -12.9032 -119.297 
1.35618 -12.9032 119.297 
2.69646 -25.6551 117.194 
4.00513 -38.1063 113.718 
5.26684 -50.1107 108.909 
6.46681 -61.5276 102.823 
7.59095 -72.2231 95.5312 
8.6261 -82.0719 87.1195 
9.56012 -90.9584 77.6864 
10.382 -98.7786 67.3424 
11.0823 -105.441 56.209 
11.6525 -110.867 44.4166 
12.0862 -114.993 32.1034 
12.3782 -117.77 19.4138 
12.525 -119.168 6.49667 
12.525 -119.168 -6.49667 
12.3782 -117.77 -19.4138 
12.0862 -114.993 -32.1034 
11.6525 -110.867 -44.4166 
11.0823 -105.441 -56.209 
10.382 -98.7786 -67.3424 
9.56012 -90.9584 -77.6864 
8.6261 -82.0719 -87.1195 
7.59095 -72.2231 -95.5312 
6.46681 -61.5276 -102.823 
5.26684 -50.1107 -108.909 
4.00513 -38.1063 -113.718 
2.69646 -25.6551 -117.194 
1.35618 -12.9032 -119.297 
4.00927 -12.3393 119.297 
7.97154 -24.5339 117.194 
11.8404 -36.4409 113.718 
15.5703 -47.9206 108.909 
19.1178 -58.8385 102.823 
22.4411 -69.0666 95.5312 
25.5013 -78.4849 87.1195 
28.2625 -86.9831 77.6864 
30.6924 -94.4615 67.3424 
32.7624 -100.832 56.209 
34.4484 -106.021 44.4166 
35.7304 -109.967 32.1034 
36.5935 -112.623 19.4138 
37.0277 -113.959 6.49667 
37.0277 -113.959 -6.49667 
36.5935 -112.623 -19.4138 
35.7304 -109.967 -32.1034 
34.4484 -106.021 -44.4166 
32.7624 -100.832 -56.209 
30.6924 -94.4615 -67.3424 
28.2625 -86.9831 -77.6864 
25.5013 -78.4849 -87.1195 
22.4411 -69.0666 -95.5312 
19.1178 -58.8385 -102.823 
15.5703 -47.9206 -108.909 
11.8404 -36.4409 -113.718 
7.97154 -24.5339 -117.194 
4.00927 -12.3393 -119.297 
6.48714 -11.2361 119.297 
12.8982 -22.3404 117.194 
19.1581 -33.1828 113.718 
25.1933 -43.6362 108.909 
30.9332 -53.5779 102.823 
36.3105 -62.8915 95.5312 
41.262 -71.4678 87.1195 
45.7297 -79.2062 77.6864 
49.6613 -86.016 67.3424 
53.0107 -91.8173 56.209 
55.7386 -96.5421 44.4166 
57.813 -100.135 32.1034 
59.2096 -102.554 19.4138 
59.912 -103.771 6.49667 
59.912 -103.771 -6.49667 
59.2096 -102.554 -19.4138 
57.813 -100.135 -32.1034 
55.7386 -96.5421 -44.4166 
53.0107 -91.8173 -56.209 
49.6613 -86.016 -67.3424 
45.7297 -79.2062 -77.6864 
41.262 -71.4678 -87.1195 
36.3105 -62.8915 -95.5312 
30.9332 -53.5779 -102.823 
25.1933 -43.6362 -108.909 
19.1581 -33.1828 -113.718 
12.8982 -22.3404 -117.194 
6.48714 -11.2361 -119.297 
8.68149 -9.64177 119.297 
17.2612 -19.1705 117.194 
25.6385 -28.4745 113.718 
33.7153 -37.4446 108.909 
41.3967 -45.9757 102.823 
48.5929 -53.9678 95.5312 
55.2193 -61.3272 87.1195 
61.1983 -67.9676 77.6864 
66.4598 -73.8111 67.3424 
70.9422 -78.7893 56.209 
74.5928 -82.8437 44.4166 
77.3689 -85.9269 32.1034 
79.2379 -88.0026 19.4138 
80.1779 -89.0466 6.49667 
80.1779 -89.0466 -6.49667 
79.2379 -88.0026 -19.4138 
77.3689 -85.9269 -32.1034 
74.5928 -82.8437 -44.4166 
70.9422 -78.7893 -56.209 
66.4598 -73.8111 -67.3424 
61.1983 -67.9676 -77.6864 
55.2193 -61.3272 -87.1195 
48.5929 -53.9678 -95.5312 
41.3967 -45.9757 -102.823 
33.7153 -37.4446 -108.909 
25.6385 -28.4745 -113.718 
17.2612 -19.1705 -117.194 
8.68149 -9.64177 -119.297 
10.4964 -7.62609 119.297 
20.8698 -15.1628 117.194 
30.9984 -22.5217 113.718 
40.7637 -29.6166 108.909 
50.051 -36.3642 102.823 
58.7515 -42.6855 95.5312 
66.7633 -48.5064 87.1195 
73.9922 -53.7585 77.6864 
80.3537 -58.3804 67.3424 
85.7731 -62.3178 56.209 
90.187 -65.5247 44.4166 
93.5434 -67.9633 32.1034 
95.8031 -69.605 19.4138 
96.9397 -70.4308 6.49667 
96.9397 -70.4308 -6.49667 
95.8031 -69.605 -19.4138 
93.5434 -67.9633 -32.1034 
90.187 -65.5247 -44.4166 
85.7731 -62.3178 -56.209 
80.3537 -58.3804 -67.3424 
73.9922 -53.7585 -77.6864 
66.7633 -48.5064 -87.1195 
58.7515 -42.6855 -95.5312 
50.051 -36.3642 -102.823 
40.7637 -29.6166 -108.909 
30.9984 -22.5217 -113.718 
20.8698 -15.1628 -117.194 
10.4964 -7.62609 -119.297 
11.8526 -5.27712 119.297 
23.5662 -10.4924 117.194 
35.0036 -15.5846 113.718 
46.0305 -20.4941 108.909 
56.5178 -25.1634 102.823 
66.3425 -29.5376 95.5312 
75.3894 -33.5655 87.1195 
83.5524 -37.1999 77.6864 
90.7358 -40.3982 67.3424 
96.8554 -43.1228 56.209 
101.839 -45.3419 44.4166 
105.63 -47.0293 32.1034 
108.181 -48.1654 19.4138 
109.465 -48.7368 6.49667 
109.465 -48.7368 -6.49667 
108.181 -48.1654 -19.4138 
105.63 -47.0293 -32.1034 
101.839 -45.3419 -44.4166 
96.8554 -43.1228 -56.209 
90.7358 -40.3982 -67.3424 
83.5524 -37.1999 -77.6864 
75.3894 -33.5655 -87.1195 
66.3425 -29.5376 -95.5312 
56.5178 -25.1634 -102.823 
46.0305 -20.4941 -108.909 
35.0036 -15.5846 -113.718 
23.5662 -10.4924 -117.194 
11.8526 -5.27712 -119.297 
12.6908 -2.6975 119.297 
25.2327 -5.36338 117.194 
37.4789 -7.96638 113.718 
49.2856 -10.476 108.909 
60.5145 -12.8628 102.823 
71.034 -15.0987 95.5312 
80.7206 -17.1577 87.1195 
89.4608 -19.0155 77.6864 
97.1522 -20.6503 67.3424 
103.705 -22.0431 56.209 
109.041 -23.1774 44.4166 
113.099 -24.04 32.1034 
115.831 -24.6207 19.4138 
117.206 -24.9128 6.49667 
117.206 -24.9128 -6.49667 
115.831 -24.6207 -19.4138 
113.099 -24.04 -32.1034 
109.041 -23.1774 -44.4166 
103.705 -22.0431 -56.209 
97.1522 -20.6503 -67.3424 
89.4608 -19.0155 -77.6864 
80.7206 -17.1577 -87.1195 
71.034 -15.0987 -95.5312 
60.5145 -12.8628 -102.823 
49.2856 -10.476 -108.909 
37.4789 -7.96638 -113.718 
25.2327 -5.36338 -117.194 
12.6908 -2.6975 -119.297 
3 2 30 0 
3 30 58 0 
3 58 86 0 
3 86 114 0 
3 114 142 0 
3 142 170 0 
3 170 198 0 
3 198 226 0 
3 226 254 0 
3 254 282 0 
3 282 310 0 
3 310 338 0 
3 338 366 0 
3 366 394 0 
3 394 422 0 
3 422 450 0 
3 450 478 0 
3 478 506 0 
3 506 534 0 
3 534 562 0 
3 562 590 0 
3 590 618 0 
3 618 646 0 
3 646 674 0 
3 674 702 0 
3 702 730 0 
3 730 758 0 
3 758 786 0 
3 786 814 0 
3 814 2 0 
3 29 1 57 
3 57 1 85 
3 85 1 113 
3 113 1 141 
3 141 1 169 
3 169 1 197 
3 197 1 225 
3 225 1 253 
3 253 1 281 
3 281 1 309 
3 309 1 337 
3 337 1 365 
3 365 1 393 
3 393 1 421 
3 421 1 449 
3 449 1 477 
3 477 1 505 
3 505 1 533 
3 533 1 561 
3 561 1 589 
3 589 1 617 
3 617 1 645 
3 645 1 673 
3 673 1 701 
3 701 1 729 
3 729 1 757 
3 757 1 785 
3 785 1 813 
3 813 1 841 
3 841 1 29 
3 2 3 31 
3 2 31 30 
3 3 4 32 
3 3 32 31 
3 4 5 33 
3 4 33 32 
3 5 6 34 
3 5 34 33 
3 6 7 35 
3 6 35 34 
3 7 8 36 
3 7 36 35 
3 8 9 37 
3 8 37 36 
3 9 10 38 
3 9 38 37 
3 10 11 39 
3 10 39 38 
3 11 12 40 
3 11 40 39 
3 12 13 41 
3 12 41 40 
3 13 14 42 
3 13 42 41 
3 14 15 43 
3 14 43 42 
3 15 16 44 
3 15 44 43 
3 16 17 45 
3 16 45 44 
3 17 18 46 
3 17 46 45 
3 18 19 47 
3 18 47 46 
3 19 20 48 
3 19 48 47 
3 20 21 49 
3 20 49 48 
3 21 22 50 
3 21 50 49 
3 22 23 51 
3 22 51 50 
3 23 24 52 
3 23 52 51 
3 24 25 53 
3 24 53 52 
3 25 26 54 
3 25 54 53 
3 26 27 55 
3 26 55 54 
3 27 28 56 
3 27 56 55 
3 28 29 57 
3 28 57 56 
3 30 31 59 
3 30 59 58 
3 31 32 60 
3 31 60 59 
3 32 33 61 
3 32 61 60 
3 33 34 62 
3 33 62 61 
3 34 35 63 
3 34 63 62 
3 35 36 64 
3 35 64 63 
3 36 37 65 
3 36 65 64 
3 37 38 66 
3 37 66 65 
3 38 39 67 
3 38 67 66 
3 39 40 68 
3 39 68 67 
3 40 41 69 
3 40 69 68 
3 41 42 70 
3 41 70 69 
3 42 43 71 
3 42 71 70 
3 43 44 72 
3 43 72 71 
3 44 45 73 
3 44 73 72 
3 45 46 74 
3 45 74 73 
3 46 47 75 
3 46 75 74 
3 47 48 76 
3 47 76 75 
3 48 49 77 
3 48 77 76 
3 49 50 78 
3 49 78 77 
3 50 51 79 
3 50 79 78 
3 51 52 80 
3 51 80 79 
3 52 53 81 
3 52 81 80 
3 53 54 82 
3 53 82 81 
3 54 55 83 
3 54 83 82 
3 55 56 84 
3 55 84 83 
3 56 57 85 
3 56 85 84 
3 58 59 87 
3 58 87 86 
3 59 60 88 
3 59 88 87 
3 60 61 89 
3 60 89 88 
3 61 62 90 
3 61 90 89 
3 62 63 91 
3 62 91 90 
3 63 64 92 
3 63 92 91 
3 64 65 93 
3 64 93 92 
3 65 66 94 
3 65 94 93 
3 66 67 95 
3 66 95 94 
3 67 68 96 
3 67 96 95 
3 68 69 97 
3 68 97 96 
3 69 70 98 
3 69 98 97 
3 70 71 99 
3 70 99 98 
3 71 72 100 
3 71 100 99 
3 72 73 101 
3 72 101 100 
3 73 74 102 
3 73 102 101 
3 74 75 103 
3 74 103 102 
3 75 76 104 
3 75 104 103 
3 76 77 105 
3 76 105 104 
3 77 78 106 
3 77 106 105 
3 78 79 107 
3 78 107 106 
3 79 80 108 
3 79 108 107 
3 80 81 109 
3 80 109 108 
3 81 82 110 
3 81 110 109 
3 82 83 111 
3 82 111 110 
3 83 84 112 
3 83 112 111 
3 84 85 113 
3 84 113 112 
3 86 87 115 
3 86 115 114 
3 87 88 116 
3 87 116 115 
3 88 89 117 
3 88 117 116 
3 89 90 118 
3 89 118 117 
3 90 91 119 
3 90 119 118 
3 91 92 120 
3 91 120 119 
3 92 93 121 
3 92 121 120 
3 93 94 122 
3 93 122 121 
3 94 95 123 
3 94 123 122 
3 95 96 124 
3 95 124 123 
3 96 97 125 
3 96 125 124 
3 97 98 126 
3 97 126 125 
3 98 99 127 
3 98 127 126 
3 99 100 128 
3 99 128 127 
3 100 101 129 
3 100 129 128 
3 101 102 130 
3 101 130 129 
3 102 103 131 
3 102 131 130 
3 103 104 132 
3 103 132 131 
3 104 105 133 
3 104 133 132 
3 105 106 134 
3 105 134 133 
3 106 107 135 
3 106 135 134 
3 107 108 136 
3 107 136 135 
3 108 109 137 
3 108 137 136 
3 109 110 138 
3 109 138 137 
3 110 111 139 
3 110 139 138 
3 111 112 140 
3 111 140 139 
3 112 113 141 
3 112 141 140 
3 114 115 143 
3 114 143 142 
3 115 116 144 
3 115 144 143 
3 116 117 145 
3 116 145 144 
3 117 118 146 
3 117 146 145 
3 118 119 147 
3 118 147 146 
3 119 120 148 
3 119 148 147 
3 120 121 149 
3 120 149 148 
3 121 122 150 
3 121 150 149 
3 122 123 151 
3 122 151 150 
3 123 124 152 
3 123 152 151 
3 124 125 153 
3 124 153 152 
3 125 126 154 
3 125 154 153 
3 126 127 155 
3 126 155 154 
3 127 128 156 
3 127 156 155 
3 128 129 157 
3 128 157 156 
3 129 130 158 
3 129 158 157 
3 130 131 159 
3 130 159 158 
3 131 132 160 
3 131 160 159 
3 132 133 161 
3 132 161 160 
3 133 134 162 
3 133 162 161 
3 134 135 163 
3 134 163 162 
3 135 136 164 
3 135 164 163 
3 136 137 165 
3 136 165 164 
3 137 138 166 
3 137 166 165 
3 138 139 167 
3 138 167 166 
3 139 140 168 
3 139 168 167 
3 140 141 169 
3 140 169 168 
3 142 143 171 
3 142 171 170 
3 143 144 172 
3 143 172 171 
3 144 145 173 
3 144 173 172 
3 145 146 174 
3 145 174 173 
3 146 147 175 
3 146 175 174 
3 147 148 176 
3 147 176 175 
3 148 149 177 
3 148 177 176 
3 149 150 178 
3 149 178 177 
3 150 151 179 
3 150 179 178 
3 151 152 180 
3 151 180 179 
3 152 153 181 
3 152 181 180 
3 153 154 182 
3 153 182 181 
3 154 155 183 
3 154 183 182 
3 155 156 184 
3 155 184 183 
3 156 157 185 
3 156 185 184 
3 157 158 186 
3 157 186 185 
3 158 159 187 
3 158 187 186 
3 159 160 188 
3 159 188 187 
3 160 161 189 
3 160 189 188 
3 161 162 190 
3 161 190 189 
3 162 163 191 
3 162 191 190 
3 163 164 192 
3 163 192 191 
3 164 165 193 
3 164 193 192 
3 165 166 194 
3 165 194 193 
3 166 167 195 
3 166 195 194 
3 167 168 196 
3 167 196 195 
3 168 169 197 
3 168 197 196 
3 170 171 199 
3 170 199 198 
3 171 172 200 
3 171 200 199 
3 172 173 201 
3 172 201 200 
3 173 174 202 
3 173 202 201 
3 174 175 203 
3 174 203 202 
3 175 176 204 
3 175 204 203 
3 176 177 205 
3 176 205 204 
3 177 178 206 
3 177 206 205 
3 178 179 207 
3 178 207 206 
3 179 180 208 
3 179 208 207 
3 180 181 209 
3 180 209 208 
3 181 182 210 
3 181 210 209 
3 182 183 211 
3 182 211 210 
3 183 184 212 
3 183 212 211 
3 184 185 213 
3 184 213 212 
3 185 186 214 
3 185 214 213 
3 186 187 215 
3 186 215 214 
3 187 188 216 
3 187 216 215 
3 188 189 217 
3 188 217 216 
3 189 190 218 
3 189 218 217 
3 190 191 219 
3 190 219 218 
3 191 192 220 
3 191 220 219 
3 192 193 221 
3 192 221 220 
3 193 194 222 
3 193 222 221 
3 194 195 223 
3 194 223 222 
3 195 196 224 
3 195 224 223 
3 196 197 225 
3 196 225 224 
3 198 199 227 
3 198 227 226 
3 199 200 228 
3 199 228 227 
3 200 201 229 
3 200 229 228 
3 201 202 230 
3 201 230 229 
3 202 203 231 
3 202 231 230 
3 203 204 232 
3 203 232 231 
3 204 205 233 
3 204 233 232 
3 205 206 234 
3 205 234 233 
3 206 207 235 
3 206 235 234 
3 207 208 236 
3 207 236 235 
3 208 209 237 
3 208 237 236 
3 209 210 238 
3 209 238 237 
3 210 211 239 
3 210 239 238 
3 211 212 240 
3 211 240 239 
3 212 213 241 
3 212 241 240 
3 213 214 242 
3 213 242 241 
3 214 215 243 
3 214 243 242 
3 215 216 244 
3 215 244 243 
3 216 217 245 
3 216 245 244 
3 217 218 246 
3 217 246 245 
3 218 219 247 
3 218 247 246 
3 219 220 248 
3 219 248 247 
3 220 221 249 
3 220 249 248 
3 221 222 250 
3 221 250 249 
3 222 223 251 
3 222 251 250 
3 223 224 252 
3 223 252 251 
3 224 225 253 
3 224 253 252 
3 226 227 255 
3 226 255 254 
3 227 228 256 
3 227 256 255 
3 228 229 257 
3 228 257 256 
3 229 230 258 
3 229 258 257 
3 230 231 259 
3 230 259 258 
3 231 232 260 
3 231 260 259 
3 232 233 261 
3 232 261 260 
3 233 234 262 
3 233 262 261 
3 234 235 263 
3 234 263 262 
3 235 236 264 
3 235 264 263 
3 236 237 265 
3 236 265 264 
3 237 238 266 
3 237 266 265 
3 238 239 267 
3 238 267 266 
3 239 240 268 
3 239 268 267 
3 240 241 269 
3 240 269 268 
3 241 242 270 
3 241 270 269 
3 242 243 271 
3 242 271 270 
3 243 244 272 
3 243 272 271 
3 244 245 273 
3 244 273 272 
3 245 246 274 
3 245 274 273 
3 246 247 275 
3 246 275 274 
3 247 248 276 
3 247 276 275 
3 248 249 277 
3 248 277 276 
3 249 250 278 
3 249 278 277 
3 250 251 279 
3 250 279 278 
3 251 252 280 
3 251 280 279 
3 252 253 281 
3 252 281 280 
3 254 255 283 
3 254 283 282 
3 255 256 284 
3 255 284 283 
3 256 257 285 
3 256 285 284 
3 257 258 286 
3 257 286 285 
3 258 259 287 
3 258 287 286 
3 259 260 288 
3 259 288 287 
3 260 261 289 
3 260 289 288 
3 261 262 290 
3 261 290 289 
3 262 263 291 
3 262 291 290 
3 263 264 292 
3 263 292 291 
3 264 265 293 
3 264 293 292 
3 265 266 294 
3 265 294 293 
3 266 267 295 
3 266 295 294 
3 267 268 296 
3 267 296 295 
3 268 269 297 
3 268 297 296 
3 269 270 298 
3 269 298 297 
3 270 271 299 
3 270 299 298 
3 271 272 300 
3 271 300 299 
3 272 273 301 
3 272 301 300 
3 273 274 302 
3 273 302 301 
3 274 275 303 
3 274 303 302 
3 275 276 304 
3 275 304 303 
3 276 277 305 
3 276 305 304 
3 277 278 306 
3 277 306 305 
3 278 279 307 
3 278 307 306 
3 279 280 308 
3 279 308 307 
3 280 281 309 
3 280 309 308 
3 282 283 311 
3 282 311 310 
3 283 284 312 
3 283 312 311 
3 284 285 313 
3 284 313 312 
3 285 286 314 
3 285 314 313 
3 286 287 315 
3 286 315 314 
3 287 288 316 
3 287 316 315 
3 288 289 317 
3 288 317 316 
3 289 290 318 
3 289 318 317 
3 290 291 319 
3 290 319 318 
3 291 292 320 
3 291 320 319 
3 292 293 321 
3 292 321 320 
3 293 294 322 
3 293 322 321 
3 294 295 323 
3 294 323 322 
3 295 296 324 
3 295 324 323 
3 296 297 325 
3 296 325 324 
3 297 298 326 
3 297 326 325 
3 298 299 327 
3 298 327 326 
3 299 300 328 
3 299 328 327 
3 300 301 329 
3 300 329 328 
3 301 302 330 
3 301 330 329 
3 302 303 331 
3 302 331 330 
3 303 304 332 
3 303 332 331 
3 304 305 333 
3 304 333 332 
3 305 306 334 
3 305 334 333 
3 306 307 335 
3 306 335 334 
3 307 308 336 
3 307 336 335 
3 308 309 337 
3 308 337 336 
3 310 311 339 
3 310 339 338 
3 311 312 340 
3 311 340 339 
3 312 313 341 
3 312 341 340 
3 313 314 342 
3 313 342 341 
3 314 315 343 
3 314 343 342 
3 315 316 344 
3 315 344 343 
3 316 317 345 
3 316 345 344 
3 317 318 346 
3 317 346 345 
3 318 319 347 
3 318 347 346 
3 319 320 348 
3 319 348 347 
3 320 321 349 
3 320 349 348 
3 321 322 350 
3 321 350 349 
3 322 323 351 
3 322 351 350 
3 323 324 352 
3 323 352 351 
3 324 325 353 
3 324 353 352 
3 325 326 354 
3 325 354 353 
3 326 327 355 
3 326 355 354 
3 327 328 356 
3 327 356 355 
3 328 329 357 
3 328 357 356 
3 329 330 358 
3 329 358 357 
3 330 331 359 
3 330 359 358 
3 331 332 360 
3 331 360 359 
3 332 333 361 
3 332 361 360 
3 333 334 362 
3 333 362 361 
3 334 335 363 
3 334 363 362 
3 335 336 364 
3 335 364 363 
3 336 337 365 
3 336 365 364 
3 338 339 367 
3 338 367 366 
3 339 340 368 
3 339 368 367 
3 340 341 369 
3 340 369 368 
3 341 342 370 
3 341 370 369 
3 342 343 371 
3 342 371 370 
3 343 344 372 
3 343 372 371 
3 344 345 373 
3 344 373 372 
3 345 346 374 
3 345 374 373 
3 346 347 375 
3 346 375 374 
3 347 348 376 
3 347 376 375 
3 348 349 377 
3 348 377 376 
3 349 350 378 
3 349 378 377 
3 350 351 379 
3 350 379 378 
3 351 352 380 
3 351 380 379 
3 352 353 381 
3 352 381 380 
3 353 354 382 
3 353 382 381 
3 354 355 383 
3 354 383 382 
3 355 356 384 
3 355 384 383 
3 356 357 385 
3 356 385 384 
3 357 358 386 
3 357 386 385 
3 358 359 387 
3 358 387 386 
3 359 360 388 
3 359 388 387 
3 360 361 389 
3 360 389 388 
3 361 362 390 
3 361 390 389 
3 362 363 391 
3 362 391 390 
3 363 364 392 
3 363 392 391 
3 364 365 393 
3 364 393 392 
3 366 367 395 
3 366 395 394 
3 367 368 396 
3 367 396 395 
3 368 369 397 
3 368 397 396 
3 369 370 398 
3 369 398 397 
3 370 371 399 
3 370 399 398 
3 371 372 400 
3 371 400 399 
3 372 373 401 
3 372 401 400 
3 373 374 402 
3 373 402 401 
3 374 375 403 
3 374 403 402 
3 375 376 404 
3 375 404 403 
3 376 377 405 
3 376 405 404 
3 377 378 406 
3 377 406 405 
3 378 379 407 
3 378 407 406 
3 379 380 408 
3 379 408 407 
3 380 381 409 
3 380 409 408 
3 381 382 410 
3 381 410 409 
3 382 383 411 
3 382 411 410 
3 383 384 412 
3 383 412 411 
3 384 385 413 
3 384 413 412 
3 385 386 414 
3 385 414 413 
3 386 387 415 
3 386 415 414 
3 387 388 416 
3 387 416 415 
3 388 389 417 
3 388 417 416 
3 389 390 418 
3 389 418 417 
3 390 391 419 
3 390 419 418 
3 391 392 420 
3 391 420 419 
3 392 393 421 
3 392 421 420 
3 394 395 423 
3 394 423 422 
3 395 396 424 
3 395 424 423 
3 396 397 425 
3 396 425 424 
3 397 398 426 
3 397 426 425 
3 398 399 427 
3 398 427 426 
3 399 400 428 
3 399 428 427 
3 400 401 429 
3 400 429 428 
3 401 402 430 
3 401 430 429 
3 402 403 431 
3 402 431 430 
3 403 404 432 
3 403 432 431 
3 404 405 433 
3 404 433 432 
3 405 406 434 
3 405 434 433 
3 406 407 435 
3 406 435 434 
3 407 408 436 
3 407 436 435 
3 408 409 437 
3 408 437 436 
3 409 410 438 
3 409 438 437 
3 410 411 439 
3 410 439 438 
3 411 412 440 
3 411 440 439 
3 412 413 441 
3 412 441 440 
3 413 414 442 
3 413 442 441 
3 414 415 443 
3 414 443 442 
3 415 416 444 
3 415 444 443 
3 416 417 445 
3 416 445 444 
3 417 418 446 
3 417 446 445 
3 418 419 447 
3 418 447 446 
3 419 420 448 
3 419 448 447 
3 420 421 449 
3 420 449 448 
3 422 423 451 
3 422 451 450 
3 423 424 452 
3 423 452 451 
3 424 425 453 
3 424 453 452 
3 425 426 454 
3 425 454 453 
3 426 427 455 
3 426 455 454 
3 427 428 456 
3 427 456 455 
3 428 429 457 
3 428 457 456 
3 429 430 458 
3 429 458 457 
3 430 431 459 
3 430 459 458 
3 431 432 460 
3 431 460 459 
3 432 433 461 
3 432 461 460 
3 433 434 462 
3 433 462 461 
3 434 435 463 
3 434 463 462 
3 435 436 464 
3 435 464 463 
3 436 437 465 
3 436 465 464 
3 437 438 466 
3 437 466 465 
3 438 439 467 
3 438 467 466 
3 439 440 468 
3 439 468 467 
3 440 441 469 
3 440 469 468 
3 441 442 470 
3 441 470 469 
3 442 443 471 
3 442 471 470 
3 443 444 472 
3 443 472 471 
3 444 445 473 
3 444 473 472 
3 445 446 474 
3 445 474 473 
3 446 447 475 
3 446 475 474 
3 447 448 476 
3 447 476 475 
3 448 449 477 
3 448 477 476 
3 450 451 479 
3 450 479 478 
3 451 452 480 
3 451 480 479 
3 452 453 481 
3 452 481 480 
3 453 454 482 
3 453 482 481 
3 454 455 483 
3 454 483 482 
3 455 456 484 
3 455 484 483 
3 456 457 485 
3 456 485 484 
3 457 458 486 
3 457 486 485 
3 458 459 487 
3 458 487 486 
3 459 460 488 
3 459 488 487 
3 460 461 489 
3 460 489 488 
3 461 462 490 
3 461 490 489 
3 462 463 491 
3 462 491 490 
3 463 464 492 
3 463 492 491 
3 464 465 493 
3 464 493 492 
3 465 466 494 
3 465 494 493 
3 466 467 495 
3 466 495 494 
3 467 468 496 
3 467 496 495 
3 468 469 497 
3 468 497 496 
3 469 470 498 
3 469 498 497 
3 470 471 499 
3 470 499 498 
3 471 472 500 
3 471 500 499 
3 472 473 501 
3 472 501 500 
3 473 474 502 
3 473 502 501 
3 474 475 503 
3 474 503 502 
3 475 476 504 
3 475 504 503 
3 476 477 505 
3 476 505 504 
3 478 479 507 
3 478 507 506 
3 479 480 508 
3 479 508 507 
3 480 481 509 
3 480 509 508 
3 481 482 510 
3 481 510 509 
3 482 483 511 
3 482 511 510 
3 483 484 512 
3 483 512 511 
3 484 485 513 
3 484 513 512 
3 485 486 514 
3 485 514 513 
3 486 487 515 
3 486 515 514 
3 487 488 516 
3 487 516 515 
3 488 489 517 
3 488 517 516 
3 489 490 518 
3 489 518 517 
3 490 491 519 
3 490 519 518 
3 491 492 520 
3 491 520 519 
3 492 493 521 
3 492 521 520 
3 493 494 522 
3 493 522 521 
3 494 495 523 
3 494 523 522 
3 495 496 524 
3 495 524 523 
3 496 497 525 
3 496 525 524 
3 497 498 526 
3 497 526 525 
3 498 499 527 
3 498 527 526 
3 499 500 528 
3 499 528 527 
3 500 501 529 
3 500 529 528 
3 501 502 530 
3 501 530 529 
3 502 503 531 
3 502 531 530 
3 503 504 532 
3 503 532 531 
3 504 505 533 
3 504 533 532 
3 506 507 535 
3 506 535 534 
3 507 508 536 
3 507 536 535 
3 508 509 537 
3 508 537 536 
3 509 510 538 
3 509 538 537 
3 510 511 539 
3 510 539 538 
3 511 512 540 
3 511 540 539 
3 512 513 541 
3 512 541 540 
3 513 514 542 
3 513 542 541 
3 514 515 543 
3 514 543 542 
3 515 516 544 
3 515 544 543 
3 516 517 545 
3 516 545 544 
3 517 518 546 
3 517 546 545 
3 518 519 547 
3 518 547 546 
3 519 520 548 
3 519 548 547 
3 520 521 549 
3 520 549 548 
3 521 522 550 
3 521 550 549 
3 522 523 551 
3 522 551 550 
3 523 524 552 
3 523 552 551 
3 524 525 553 
3 524 553 552 
3 525 526 554 
3 525 554 553 
3 526 527 555 
3 526 555 554 
3 527 528 556 
3 527 556 555 
3 528 529 557 
3 528 557 556 
3 529 530 558 
3 529 558 557 
3 530 531 559 
3 530 559 558 
3 531 532 560 
3 531 560 559 
3 532 533 561 
3 532 561 560 
3 534 535 563 
3 534 563 562 
3 535 536 564 
3 535 564 563 
3 536 537 565 
3 536 565 564 
3 537 538 566 
3 537 566 565 
3 538 539 567 
3 538 567 566 
3 539 540 568 
3 539 568 567 
3 540 541 569 
3 540 569 568 
3 541 542 570 
3 541 570 569 
3 542 543 571 
3 542 571 570 
3 543 544 572 
3 543 572 571 
3 544 545 573 
3 544 573 572 
3 545 546 574 
3 545 574 573 
3 546 547 575 
3 546 575 574 
3 547 548 576 
3 547 576 575 
3 548 549 577 
3 548 577 576 
3 549 550 578 
3 549 578 577 
3 550 551 579 
3 550 579 578 
3 551 552 580 
3 551 580 579 
3 552 553 581 
3 552 581 580 
3 553 554 582 
3 553 582 581 
3 554 555 583 
3 554 583 582 
3 555 556 584 
3 555 584 583 
3 556 557 585 
3 556 585 584 
3 557 558 586 
3 557 586 585 
3 558 559 587 
3 558 587 586 
3 559 560 588 
3 559 588 587 
3 560 561 589 
3 560 589 588 
3 562 563 591 
3 562 591 590 
3 563 564 592 
3 563 592 591 
3 564 565 593 
3 564 593 592 
3 565 566 594 
3 565 594 593 
3 566 567 595 
3 566 595 594 
3 567 568 596 
3 567 596 595 
3 568 569 597 
3 568 597 596 
3 569 570 598 
3 569 598 597 
3 570 571 599 
3 570 599 598 
3 571 572 600 
3 571 600 599 
3 572 573 601 
3 572 601 600 
3 573 574 602 
3 573 602 601 
3 574 575 603 
3 574 603 602 
3 575 576 604 
3 575 604 603 
3 576 577 605 
3 576 605 604 
3 577 578 606 
3 577 606 605 
3 578 579 607 
3 578 607 606 
3 579 580 608 
3 579 608 607 
3 580 581 609 
3 580 609 608 
3 581 582 610 
3 581 610 609 
3 582 583 611 
3 582 611 610 
3 583 584 612 
3 583 612 611 
3 584 585 613 
3 584 613 612 
3 585 586 614 
3 585 614 613 
3 586 587 615 
3 586 615 614 
3 587 588 616 
3 587 616 615 
3 588 589 617 
3 588 617 616 
3 590 591 619 
3 590 619 618 
3 591 592 620 
3 591 620 619 
3 592 593 621 
3 592 621 620 
3 593 594 622 
3 593 622 621 
3 594 595 623 
3 594 623 622 
3 595 596 624 
3 595 624 623 
3 596 597 625 
3 596 625 624 
3 597 598 626 
3 597 626 625 
3 598 599 627 
3 598 627 626 
3 599 600 628 
3 599 628 627 
3 600 601 629 
3 600 629 628 
3 601 602 630 
3 601 630 629 
3 602 603 631 
3 602 631 630 
3 603 604 632 
3 603 632 631 
3 604 605 633 
3 604 633 632 
3 605 606 634 
3 605 634 633 
3 606 607 635 
3 606 635 634 
3 607 608 636 
3 607 636 635 
3 608 609 637 
3 608 637 636 
3 609 610 638 
3 609 638 637 
3 610 611 639 
3 610 639 638 
3 611 612 640 
3 611 640 639 
3 612 613 641 
3 612 641 640 
3 613 614 642 
3 613 642 641 
3 614 615 643 
3 614 643 642 
3 615 616 644 
3 615 644 643 
3 616 617 645 
3 616 645 644 
3 618 619 647 
3 618 647 646 
3 619 620 648 
3 619 648 647 
3 620 621 649 
3 620 649 648 
3 621 622 650 
3 621 650 649 
3 622 623 651 
3 622 651 650 
3 623 624 652 
3 623 652 651 
3 624 625 653 
3 624 653 652 
3 625 626 654 
3 625 654 653 
3 626 627 655 
3 626 655 654 
3 627 628 656 
3 627 656 655 
3 628 629 657 
3 628 657 656 
3 629 630 658 
3 629 658 657 
3 630 631 659 
3 630 659 658 
3 631 632 660 
3 631 660 659 
3 632 633 661 
3 632 661 660 
3 633 634 662 
3 633 662 661 
3 634 635 663 
3 634 663 662 
3 635 636 664 
3 635 664 663 
3 636 637 665 
3 636 665 664 
3 637 638 666 
3 637 666 665 
3 638 639 667 
3 638 667 666 
3 639 640 668 
3 639 668 667 
3 640 641 669 
3 640 669 668 
3 641 642 670 
3 641 670 669 
3 642 643 671 
3 642 671 670 
3 643 644 672 
3 643 672 671 
3 644 645 673 
3 644 673 672 
3 646 647 675 
3 646 675 674 
3 647 648 676 
3 647 676 675 
3 648 649 677 
3 648 677 676 
3 649 650 678 
3 649 678 677 
3 650 651 679 
3 650 679 678 
3 651 652 680 
3 651 680 679 
3 652 653 681 
3 652 681 680 
3 653 654 682 
3 653 682 681 
3 654 655 683 
3 654 683 682 
3 655 656 684 
3 655 684 683 
3 656 657 685 
3 656 685 684 
3 657 658 686 
3 657 686 685 
3 658 659 687 
3 658 687 686 
3 659 660 688 
3 659 688 687 
3 660 661 689 
3 660 689 688 
3 661 662 690 
3 661 690 689 
3 662 663 691 
3 662 691 690 
3 663 664 692 
3 663 692 691 
3 664 665 693 
3 664 693 692 
3 665 666 694 
3 665 694 693 
3 666 667 695 
3 666 695 694 
3 667 668 696 
3 667 696 695 
3 668 669 697 
3 668 697 696 
3 669 670 698 
3 669 698 697 
3 670 671 699 
3 670 699 698 
3 671 672 700 
3 671 700 699 
3 672 673 701 
3 672 701 700 
3 674 675 703 
3 674 703 702 
3 675 676 704 
3 675 704 703 
3 676 677 705 
3 676 705 704 
3 677 678 706 
3 677 706 705 
3 678 679 707 
3 678 707 706 
3 679 680 708 
3 679 708 707 
3 680 681 709 
3 680 709 708 
3 681 682 710 
3 681 710 709 
3 682 683 711 
3 682 711 710 
3 683 684 712 
3 683 712 711 
3 684 685 713 
3 684 713 712 
3 685 686 714 
3 685 714 713 
3 686 687 715 
3 686 715 714 
3 687 688 716 
3 687 716 715 
3 688 689 717 
3 688 717 716 
3 689 690 718 
3 689 718 717 
3 690 691 719 
3 690 719 718 
3 691 692 720 
3 691 720 719 
3 692 693 721 
3 692 721 720 
3 693 694 722 
3 693 722 721 
3 694 695 723 
3 694 723 722 
3 695 696 724 
3 695 724 723 
3 696 697 725 
3 696 725 724 
3 697 698 726 
3 697 726 725 
3 698 699 727 
3 698 727 726 
3 699 700 728 
3 699 728 727 
3 700 701 729 
3 700 729 728 
3 702 703 731 
3 702 731 730 
3 703 704 732 
3 703 732 731 
3 704 705 733 
3 704 733 732 
3 705 706 734 
3 705 734 733 
3 706 707 735 
3 706 735 734 
3 707 708 736 
3 707 736 735 
3 708 709 737 
3 708 737 736 
3 709 710 738 
3 709 738 737 
3 710 711 739 
3 710 739 738 
3 711 712 740 
3 711 740 739 
3 712 713 741 
3 712 741 740 
3 713 714 742 
3 713 742 741 
3 714 715 743 
3 714 743 742 
3 715 716 744 
3 715 744 743 
3 716 717 745 
3 716 745 744 
3 717 718 746 
3 717 746 745 
3 718 719 747 
3 718 747 746 
3 719 720 748 
3 719 748 747 
3 720 721 749 
3 720 749 748 
3 721 722 750 
3 721 750 749 
3 722 723 751 
3 722 751 750 
3 723 724 752 
3 723 752 751 
3 724 725 753 
3 724 753 752 
3 725 726 754 
3 725 754 753 
3 726 727 755 
3 726 755 754 
3 727 728 756 
3 727 756 755 
3 728 729 757 
3 728 757 756 
3 730 731 759 
3 730 759 758 
3 731 732 760 
3 731 760 759 
3 732 733 761 
3 732 761 760 
3 733 734 762 
3 733 762 761 
3 734 735 763 
3 734 763 762 
3 735 736 764 
3 735 764 763 
3 736 737 765 
3 736 765 764 
3 737 738 766 
3 737 766 765 
3 738 739 767 
3 738 767 766 
3 739 740 768 
3 739 768 767 
3 740 741 769 
3 740 769 768 
3 741 742 770 
3 741 770 769 
3 742 743 771 
3 742 771 770 
3 743 744 772 
3 743 772 771 
3 744 745 773 
3 744 773 772 
3 745 746 774 
3 745 774 773 
3 746 747 775 
3 746 775 774 
3 747 748 776 
3 747 776 775 
3 748 749 777 
3 748 777 776 
3 749 750 778 
3 749 778 777 
3 750 751 779 
3 750 779 778 
3 751 752 780 
3 751 780 779 
3 752 753 781 
3 752 781 780 
3 753 754 782 
3 753 782 781 
3 754 755 783 
3 754 783 782 
3 755 756 784 
3 755 784 783 
3 756 757 785 
3 756 785 784 
3 758 759 787 
3 758 787 786 
3 759 760 788 
3 759 788 787 
3 760 761 789 
3 760 789 788 
3 761 762 790 
3 761 790 789 
3 762 763 791 
3 762 791 790 
3 763 764 792 
3 763 792 791 
3 764 765 793 
3 764 793 792 
3 765 766 794 
3 765 794 793 
3 766 767 795 
3 766 795 794 
3 767 768 796 
3 767 796 795 
3 768 769 797 
3 768 797 796 
3 769 770 798 
3 769 798 797 
3 770 771 799 
3 770 799 798 
3 771 772 800 
3 771 800 799 
3 772 773 801 
3 772 801 800 
3 773 774 802 
3 773 802 801 
3 774 775 803 
3 774 803 802 
3 775 776 804 
3 775 804 803 
3 776 777 805 
3 776 805 804 
3 777 778 806 
3 777 806 805 
3 778 779 807 
3 778 807 806 
3 779 780 808 
3 779 808 807 
3 780 781 809 
3 780 809 808 
3 781 782 810 
3 781 810 809 
3 782 783 811 
3 782 811 810 
3 783 784 812 
3 783 812 811 
3 784 785 813 
3 784 813 812 
3 786 787 815 
3 786 815 814 
3 787 788 816 
3 787 816 815 
3 788 789 817 
3 788 817 816 
3 789 790 818 
3 789 818 817 
3 790 791 819 
3 790 819 818 
3 791 792 820 
3 791 820 819 
3 792 793 821 
3 792 821 820 
3 793 794 822 
3 793 822 821 
3 794 795 823 
3 794 823 822 
3 795 796 824 
3 795 824 823 
3 796 797 825 
3 796 825 824 
3 797 798 826 
3 797 826 825 
3 798 799 827 
3 798 827 826 
3 799 800 828 
3 799 828 827 
3 800 801 829 
3 800 829 828 
3 801 802 830 
3 801 830 829 
3 802 803 831 
3 802 831 830 
3 803 804 832 
3 803 832 831 
3 804 805 833 
3 804 833 832 
3 805 806 834 
3 805 834 833 
3 806 807 835 
3 806 835 834 
3 807 808 836 
3 807 836 835 
3 808 809 837 
3 808 837 836 
3 809 810 838 
3 809 838 837 
3 810 811 839 
3 810 839 838 
3 811 812 840 
3 811 840 839 
3 812 813 841 
3 812 841 840 
3 814 815 3 
3 814 3 2 
3 815 816 4 
3 815 4 3 
3 816 817 5 
3 816 5 4 
3 817 818 6 
3 817 6 5 
3 818 819 7 
3 818 7 6 
3 819 820 8 
3 819 8 7 
3 820 821 9 
3 820 9 8 
3 821 822 10 
3 821 10 9 
3 822 823 11 
3 822 11 10 
3 823 824 12 
3 823 12 11 
3 824 825 13 
3 824 13 12 
3 825 826 14 
3 825 14 13 
3 826 827 15 
3 826 15 14 
3 827 828 16 
3 827 16 15 
3 828 829 17 
3 828 17 16 
3 829 830 18 
3 829 18 17 
3 830 831 19 
3 830 19 18 
3 831 832 20 
3 831 20 19 
3 832 833 21 
3 832 21 20 
3 833 834 22 
3 833 22 21 
3 834 835 23 
3 834 23 22 
3 835 836 24 
3 835 24 23 
3 836 837 25 
3 836 25 24 
3 837 838 26 
3 837 26 25 
3 838 839 27 
3 838 27 26 
3 839 840 28 
3 839 28 27 
3 840 841 29 
3 840 29 28 
